<svg width="1023" height="1112" viewBox="0 0 1023 1112" fill="none" xmlns="http://www.w3.org/2000/svg">
<path opacity="0.5" d="M318.628 37.6942C198.693 138.217 180.107 328.298 98.8788 468.527C70.6026 517.322 34.0659 560.992 15.0033 615.123C-28.7612 739.026 31.4713 879.572 112.09 977.981C150.533 1024.93 195.436 1067.94 249.765 1087.72C291.544 1102.94 336.341 1103.57 380.317 1103.97L1150.76 1111.9C1236.78 1112.77 1332.36 1109.62 1394.21 1043.21C1436.84 997.478 1454.15 930.692 1468.85 866.944C1486.9 788.613 1503.26 703.546 1475.17 628.94C1443.08 543.582 1361.94 495.21 1311.53 421.555C1229.72 302.223 1231.59 121.731 1127.41 26.4664C1078.78 -17.9959 1014.6 -35.4321 952.063 -44.1502C834.166 -60.6089 722.491 -29.5408 606.712 -33.8734C507.745 -37.572 400.73 -31.1259 318.628 37.6942Z" fill="#E7ECFF"/>
<path opacity="0.24" d="M560.104 933.613C513.648 938.283 465.767 943.419 424.888 966.264C419.416 969.328 413.861 972.942 410.842 978.458C404.784 989.553 411.66 1004.18 422.33 1010.86C433.001 1017.53 446.166 1018.29 458.723 1018.84C682.323 1028.59 906.257 1024.76 1130.05 1020.96C1195.03 1019.86 1261.05 1018.59 1323.33 999.718C1334.53 996.337 1346.83 991.265 1351.05 980.212C1356.56 965.757 1343.98 949.737 1329.31 945.236C1314.63 940.735 1298.97 944.095 1283.79 946.06C1231.09 952.886 1177.93 942.446 1125.45 934.099C1022.73 917.784 916.152 904.512 812.109 902.039C776.639 901.215 746.346 913.515 711.63 918.376C661.506 925.434 610.501 928.541 560.104 933.613Z" fill="#505F98"/>
<path d="M377.369 500.326L493.201 264.402L562.196 298.187L446.363 534.111L377.369 500.326Z" fill="white"/>
<path d="M404.218 493.055L418.333 464.22L464.804 486.903L450.689 515.738L404.218 493.055Z" fill="#505F98"/>
<path d="M404.218 493.055L418.333 464.22L464.804 486.903L450.689 515.738L404.218 493.055Z" fill="url(#paint0_linear_160_4)"/>
<path d="M418.335 464.445L432.451 435.61L478.922 458.293L464.806 487.128L418.335 464.445Z" fill="#505F98"/>
<path d="M418.335 464.445L432.451 435.61L478.922 458.293L464.806 487.128L418.335 464.445Z" fill="url(#paint1_linear_160_4)"/>
<path d="M432.434 435.826L446.55 406.991L493.02 429.674L478.905 458.509L432.434 435.826Z" fill="#505F98"/>
<path d="M432.434 435.826L446.55 406.991L493.02 429.674L478.905 458.509L432.434 435.826Z" fill="url(#paint2_linear_160_4)"/>
<path d="M446.573 407.237L460.688 378.402L507.159 401.085L493.043 429.92L446.573 407.237Z" fill="#505F98"/>
<path d="M446.573 407.237L460.688 378.402L507.159 401.085L493.043 429.92L446.573 407.237Z" fill="url(#paint3_linear_160_4)"/>
<path d="M460.68 378.599L474.796 349.764L521.267 372.447L507.151 401.282L460.68 378.599Z" fill="#505F98"/>
<path d="M474.798 350.01L488.914 321.175L535.384 343.858L521.269 372.693L474.798 350.01Z" fill="#505F98"/>
<path d="M488.896 321.391L503.012 292.556L549.483 315.239L535.367 344.074L488.896 321.391Z" fill="#505F98"/>
<path d="M473.21 353.598L487.325 324.763L533.796 347.446L519.681 376.281L473.21 353.598Z" fill="url(#paint4_linear_160_4)"/>
<path d="M487.336 324.97L501.452 296.135L547.923 318.817L533.807 347.652L487.336 324.97Z" fill="url(#paint5_linear_160_4)"/>
<rect x="787.896" y="818" width="98.0821" height="82" fill="#505F98"/>
<rect x="787.896" y="818" width="98.0821" height="82" fill="url(#paint6_linear_160_4)"/>
<rect x="579.722" y="476" width="518.434" height="355" rx="9.37" fill="#505F98"/>
<path opacity="0.65" d="M1081.14 505.438V799.562C1081.16 804.443 1079.23 809.129 1075.79 812.588C1072.35 816.047 1067.68 817.994 1062.8 818H611.073C606.198 817.989 601.527 816.04 598.087 812.582C594.648 809.125 592.722 804.441 592.733 799.562V505.438C592.722 500.559 594.648 495.875 598.087 492.418C601.527 488.96 606.198 487.011 611.073 487H1062.8C1067.68 487.006 1072.35 488.953 1075.79 492.412C1079.23 495.871 1081.16 500.557 1081.14 505.438Z" fill="url(#paint7_linear_160_4)"/>
<rect x="742.859" y="890" width="206.173" height="21" fill="#505F98"/>
<rect x="787.896" y="878" width="98.0821" height="12" fill="url(#paint8_linear_160_4)"/>
<path fill-rule="evenodd" clip-rule="evenodd" d="M943.026 304.241V324.715L930.315 324.819C929.079 334.346 925.454 343.41 919.775 351.181L930.631 362.351L915.749 376.6L905.062 365.578C898.472 370.062 891.036 373.17 883.202 374.714V388H862.629V375.029C853.843 373.76 845.469 370.497 838.156 365.494L829.218 374.316L814.652 359.647L823.526 350.993C817.939 343.219 814.376 334.191 813.155 324.715H798.906V304.241H813.661C815.49 296.093 819.087 288.441 824.201 281.819L815.959 273.332L830.841 259.082L839.273 267.82C846.244 263.214 854.169 260.228 862.46 259.082V245H883.034V259.396C891.404 261.055 899.314 264.493 906.221 269.476L916.761 259.166L931.243 273.709L920.703 284.187C924.835 290.267 927.768 297.073 929.346 304.241H943.026ZM836.87 317.149C836.847 336.211 852.371 351.682 871.546 351.705C880.758 351.733 889.603 348.113 896.126 341.644C902.648 335.176 906.311 326.392 906.306 317.233C906.329 298.172 890.804 282.701 871.63 282.678C852.456 282.655 836.893 298.088 836.87 317.149Z" fill="#505F98"/>
<path fill-rule="evenodd" clip-rule="evenodd" d="M1019.09 338.354L1018.17 350.396L1010.66 349.938C1009.53 355.475 1007.03 360.641 1003.37 364.958L1009.24 372.021L999.888 379.729L994.128 372.792C990.073 375.13 985.586 376.625 980.937 377.188L980.332 385L968.289 384.104L968.874 376.479C963.787 375.344 959.031 373.056 954.973 369.792L949.338 374.583L941.47 365.396L947.042 360.688C944.113 355.876 942.428 350.414 942.137 344.792L934.019 344.167L934.916 332.146L943.536 332.792C944.96 328.085 947.388 323.743 950.653 320.062L946.207 314.708L955.558 307L960.087 312.5C964.359 310.095 969.115 308.672 974.008 308.333L974.634 300L986.677 300.896L986.03 309.375C990.838 310.714 995.296 313.081 999.095 316.312L1005.71 310.708L1013.56 319.896L1006.88 325.583C1009.05 329.339 1010.46 333.477 1011.05 337.771L1019.09 338.354ZM956.384 341.243C955.528 352.436 963.922 362.203 975.135 363.063C980.53 363.487 985.872 361.747 989.978 358.228C994.083 354.708 996.614 349.7 997.008 344.313C997.851 333.119 989.446 323.361 978.232 322.514C967.019 321.666 957.239 330.05 956.384 341.243Z" fill="#505F98"/>
<path d="M1081.14 505.513V512H592.733V505.513C592.722 500.614 594.648 495.912 598.088 492.44C601.527 488.968 606.199 487.011 611.074 487H1062.8C1067.68 487.006 1072.35 488.961 1075.79 492.434C1079.23 495.907 1081.16 500.613 1081.14 505.513Z" fill="url(#paint9_linear_160_4)"/>
<rect x="602.741" y="544" width="47.0394" height="227" fill="url(#paint10_linear_160_4)"/>
<rect x="720.84" y="560" width="221.185" height="209" fill="url(#paint11_linear_160_4)"/>
<rect x="771.883" y="658" width="7.00586" height="9" fill="url(#paint12_linear_160_4)"/>
<rect x="771.883" y="616" width="7.00586" height="9" fill="url(#paint13_linear_160_4)"/>
<rect x="676.803" y="658" width="7.00586" height="9" fill="url(#paint14_linear_160_4)"/>
<rect x="676.803" y="616" width="7.00586" height="9" fill="url(#paint15_linear_160_4)"/>
<rect x="771.883" y="571" width="7.00586" height="9" fill="url(#paint16_linear_160_4)"/>
<rect x="677.804" y="571" width="7.00586" height="9" fill="url(#paint17_linear_160_4)"/>
<rect x="725.844" y="571" width="7.00586" height="9" fill="url(#paint18_linear_160_4)"/>
<rect x="725.844" y="658" width="7.00586" height="9" fill="url(#paint19_linear_160_4)"/>
<path fill-rule="evenodd" clip-rule="evenodd" d="M689.814 656H767.88V583H689.814V656ZM760.016 648.282H697.677V590.656H760.016V648.282Z" fill="#505F98"/>
<path fill-rule="evenodd" clip-rule="evenodd" d="M689.814 656H767.88V583H689.814V656ZM760.016 648.282H697.677V590.656H760.016V648.282Z" fill="url(#paint20_linear_160_4)"/>
<rect x="974.052" y="524" width="100.084" height="100" fill="url(#paint21_linear_160_4)"/>
<rect x="974.052" y="634" width="100.084" height="100" fill="url(#paint22_linear_160_4)"/>
<rect opacity="0.65" x="602.741" y="543" width="47.0394" height="13" fill="url(#paint23_linear_160_4)"/>
<path d="M399.676 474.827L604.834 310.293L652.953 370.118L447.795 534.652L399.676 474.827Z" fill="white"/>
<path d="M428.404 479.455L453.475 459.234L486.062 499.521L460.991 519.742L428.404 479.455Z" fill="#505F98"/>
<path d="M428.404 479.455L453.475 459.234L486.062 499.521L460.991 519.742L428.404 479.455Z" fill="url(#paint24_linear_160_4)"/>
<path d="M452.025 459.689L477.061 439.56L509.5 479.791L484.464 499.919L452.025 459.689Z" fill="#505F98"/>
<path d="M452.025 459.689L477.061 439.56L509.5 479.791L484.464 499.919L452.025 459.689Z" fill="url(#paint25_linear_160_4)"/>
<path d="M476.973 439.761L502.008 419.633L534.448 459.863L509.412 479.991L476.973 439.761Z" fill="#505F98"/>
<path d="M476.973 439.761L502.008 419.633L534.448 459.863L509.412 479.991L476.973 439.761Z" fill="url(#paint26_linear_160_4)"/>
<path d="M501.904 419.847L526.94 399.718L559.379 439.948L534.343 460.077L501.904 419.847Z" fill="#505F98"/>
<path d="M501.904 419.847L526.94 399.718L559.379 439.948L534.343 460.077L501.904 419.847Z" fill="url(#paint27_linear_160_4)"/>
<path d="M528.028 399.39L553.099 379.169L585.686 419.457L560.615 439.677L528.028 399.39Z" fill="#505F98"/>
<path d="M553.111 378.99L578.182 358.77L610.77 399.057L585.698 419.277L553.111 378.99Z" fill="#505F98"/>
<path d="M576.722 360.051L601.758 339.923L634.198 380.153L609.162 400.282L576.722 360.051Z" fill="#505F98"/>
<path d="M606.745 403.218L585.642 420L553.7 379.782L574.802 363L606.745 403.218Z" fill="url(#paint28_linear_160_4)"/>
<path d="M573.765 362.647L598.8 342.519L631.24 382.749L606.204 402.878L573.765 362.647Z" fill="url(#paint29_linear_160_4)"/>
<path d="M522.674 484.15V607H501.657V484.15C501.657 479.61 504.476 475.57 508.676 474.089V461.825C508.676 459.712 510.352 458 512.42 458C514.487 458 516.164 459.712 516.164 461.825V474.297C520.083 475.935 522.652 479.823 522.674 484.15Z" fill="#505F98"/>
<path d="M522.674 484.15V607H501.657V484.15C501.657 479.61 504.476 475.57 508.676 474.089V461.825C508.676 459.712 510.352 458 512.42 458C514.487 458 516.164 459.712 516.164 461.825V474.297C520.083 475.935 522.652 479.823 522.674 484.15Z" fill="url(#paint30_linear_160_4)"/>
<rect x="488.646" y="562" width="50.0419" height="9" rx="2.245" fill="#505F98"/>
<path d="M513.355 644C504.781 644 497.653 631.185 497.653 622.634V566H528.679V622.634C528.679 631.185 521.908 644 513.355 644Z" fill="#505F98"/>
<rect x="488.646" y="562" width="50.0419" height="9" rx="2.245" fill="url(#paint31_linear_160_4)"/>
<path d="M513.355 644C504.781 644 497.653 631.366 497.653 622.937V571H528.679V622.937C528.679 631.366 521.908 644 513.355 644Z" fill="url(#paint32_linear_160_4)"/>
<path d="M713.476 704C712.803 700.436 712.378 695.39 713.671 695.043C716.399 694.275 713.476 704 713.476 704Z" fill="#28353D"/>
<path d="M856.756 899.507C856.27 912.102 846.506 958.388 846.189 971.004C846.189 975.202 847.309 981.647 845.957 985.698C843.167 994.284 833.276 993.108 831.987 988.049L831.501 985.53C826.915 961.012 834.291 933.198 831.501 901.186C829.832 881.643 822.054 843.963 816.961 843.711C814.277 843.711 753.011 972.851 747.685 980.807C745.064 984.817 737.689 984.187 734.117 987.42C730.546 990.652 763.873 889.515 777.843 836.07C781.101 825.039 783.225 813.709 784.183 802.252C784.563 795.64 782.429 793.415 788.536 791.463C792.763 790.119 798.617 790.497 803.14 790.182C808.064 789.804 853.861 789.72 853.861 792.953C853.417 810.502 857.939 870.412 856.756 899.507Z" fill="#606161"/>
<path d="M856.756 899.507C856.27 912.102 846.506 958.388 846.189 971.004C846.189 975.202 847.309 981.647 845.957 985.698C843.167 994.284 833.276 993.108 831.987 988.049L831.501 985.53C826.915 961.012 834.291 933.198 831.501 901.186C829.832 881.643 822.054 843.963 816.961 843.711C814.277 843.711 753.011 972.851 747.685 980.807C745.064 984.817 737.689 984.187 734.117 987.42C730.546 990.652 763.873 889.515 777.843 836.07C781.101 825.039 783.225 813.709 784.183 802.252C784.563 795.64 782.429 793.415 788.536 791.463C792.763 790.119 798.617 790.497 803.14 790.182C808.064 789.804 853.861 789.72 853.861 792.953C853.417 810.502 857.939 870.412 856.756 899.507Z" fill="url(#paint33_linear_160_4)"/>
<path d="M802.675 631.148C802.29 627.163 800.407 625 798.567 625C796.727 625 795.593 627.12 795.978 631.148C796.065 634.122 798.31 636.597 801.284 637C803.146 637 803.081 635.134 802.675 631.148Z" fill="#FFCD9C"/>
<path d="M835.073 631.159C835.324 627.166 837.161 625 839.06 625C840.959 625 842.191 627.124 841.899 631.159C841.872 634.173 839.627 636.687 836.681 637C834.802 637 834.781 635.152 835.073 631.159Z" fill="#FFCD9C"/>
<path d="M838.799 648.672C838.54 650.777 829.623 660 819.477 660C809.33 660 800.953 651.577 799.183 648.208C797.413 644.839 804.537 601.505 808.66 597.884C812.784 594.262 829.494 596.641 830.897 598.558C834.265 603.085 839.9 640.27 838.799 648.672Z" fill="#F4AD7D"/>
<path d="M834.604 615.977C833.224 616.639 827.808 602.842 826.672 600.525C825.536 598.208 825.719 595.829 827.098 595.167C828.478 594.505 830.506 595.871 831.642 598.167C832.778 600.463 835.963 615.336 834.604 615.977Z" fill="#FFCD9C"/>
<path d="M804.229 614.987C802.799 614.501 806.587 600.179 807.413 597.703C808.239 595.228 810.093 593.599 811.443 594.086C812.793 594.573 813.358 596.984 812.531 599.481C811.705 601.977 805.579 615.474 804.229 614.987Z" fill="#FFCD9C"/>
<path d="M809.907 647H831.674L834.936 667.622C823.078 674.005 816.164 673.301 806.912 666.214L809.907 647Z" fill="#F4AD7D"/>
<path d="M818.922 651.13C818.922 650.75 819.828 650.43 820.924 650.43C822.02 650.43 822.925 650.75 822.925 651.13C822.925 651.51 822.043 651.57 820.924 651.57C819.804 651.57 818.922 651.53 818.922 651.13Z" fill="#F4AD7D"/>
<path d="M839.958 641.808C840.782 636.894 842.127 601.708 838.831 597.051C835.535 592.394 815.804 589.381 812.812 590.108C806.112 591.731 807.283 596.517 807.283 596.517C805.291 596.547 803.342 597.084 801.624 598.076C799.325 599.615 794.49 621.79 798.35 638.56C800.084 646.102 806.914 652.66 818.71 652.981C833.237 653.365 838.961 647.896 839.958 641.808Z" fill="#606161"/>
<path d="M812.893 591.762C814.453 590.448 816.473 589.828 818.494 590.041C824.627 590.008 830.712 591.14 836.431 593.376C839.602 594.488 842.481 596.311 844.852 598.708C847.239 601.173 848.339 604.627 847.82 608.034C846.768 613.047 841.505 616.148 839.778 620.97C838.389 624.837 839.378 628.575 839.42 632.463C839.448 635.606 839.223 638.746 838.747 641.852C837.778 647.906 832.241 653.344 818.03 652.983C806.577 652.664 799.946 646.143 798.262 638.644C795.981 626.198 796.579 613.389 800.009 601.215C806.181 602.648 812.497 603.361 818.83 603.339C825.546 603.395 832.243 602.611 838.768 601.002C839.883 607.503 839.862 620.524 839.505 630.253" fill="#606161"/>
<path d="M777.76 663.954C774.325 664.241 771.016 665.384 768.133 667.28C763.195 671.171 762.82 678.43 762.903 684.748C762.734 693.501 763.341 702.252 764.716 710.897C766.195 718.826 768.883 726.441 771.092 734.202C774.574 746.831 776.402 759.862 776.53 772.966C776.53 780.162 776.405 788.07 780.885 793.697C785.782 799.806 794.45 800.998 802.243 801.438C813.308 802.086 824.414 802.17 835.478 801.709C842.896 801.375 850.793 800.643 856.669 796.082C861.357 792.442 872.338 669.288 863.816 666.171C855.294 663.054 846.126 662.259 837.082 661.506C816.808 659.791 797.722 658.431 777.76 663.954Z" fill="#505F98"/>
<path d="M841.588 919.291C840.501 933.255 837.909 984 837.909 984L831.303 983.77C826.767 959.39 834.063 931.732 831.303 899.899C829.652 880.465 821.959 842.996 816.921 842.746C818.426 830.221 826.892 832.1 826.892 832.1C833.05 841.294 838.361 851.026 842.759 861.178C847.797 874.37 842.696 905.263 841.588 919.291Z" fill="url(#paint34_linear_160_4)"/>
<path d="M717.213 985.024C716.182 985.786 715.399 986.83 714.961 988.025C714.726 989.009 714.821 990.04 715.232 990.965C716.399 993.326 718.609 995.019 721.217 995.55C723.794 996.04 726.433 996.131 729.038 995.818L737.38 995.262C739.502 995.212 741.608 994.873 743.636 994.255C745.666 993.627 747.342 992.198 748.266 990.308C748.757 988.916 748.949 987.438 748.829 985.969C748.829 979.164 746.41 973.634 738.86 975.299C730.952 976.765 723.524 980.102 717.213 985.024Z" fill="#505F98"/>
<path d="M855.772 988.063C856.719 988.759 857.438 989.709 857.839 990.797C858.053 991.682 857.969 992.611 857.6 993.446C856.536 995.584 854.507 997.114 852.115 997.579C849.758 998.035 847.341 998.121 844.955 997.834L837.382 997.325C835.456 997.284 833.544 996.985 831.702 996.435C829.845 995.864 828.315 994.566 827.48 992.853C827.032 991.595 826.854 990.26 826.958 988.932C826.958 982.785 829.134 977.72 836.076 979.288C843.273 980.619 850.032 983.63 855.772 988.063Z" fill="#505F98"/>
<path d="M864.961 666C864.961 666 897.681 685.163 907.508 709.389C917.335 733.614 875.324 792 875.324 792L866.334 782.814C866.334 782.814 888.262 738.759 884.872 727.74C881.482 716.721 868.201 706.452 868.201 706.452L864.961 666Z" fill="#505F98"/>
<path d="M771.883 703.859C771.883 703.859 726.388 724.24 707.9 714.238C689.413 704.237 708.446 654 708.446 654L720.827 658.202C720.827 658.202 710.481 683.815 722.317 687.618C734.152 691.421 769.617 666.438 769.617 666.438L771.883 703.859Z" fill="#505F98"/>
<path d="M857.536 790.976C856.227 791.826 855.166 792.968 854.45 794.297C854.02 795.425 853.866 796.629 853.997 797.819C853.918 800.709 855.232 803.479 857.579 805.367C859.227 806.25 861.075 806.76 862.973 806.857C864.136 807.048 865.326 807.048 866.49 806.857C867.676 806.646 868.668 805.888 869.122 804.844C869.277 804.183 869.342 803.507 869.316 802.831C869.467 799.51 871.97 796.793 874.041 794.076C874.542 793.551 874.865 792.9 874.969 792.204C874.957 791.434 874.668 790.69 874.149 790.091C872.747 788.199 869.273 784.717 866.49 785.018C863.706 785.32 859.693 789.326 857.536 790.976Z" fill="#F4AD7D"/>
<path d="M728.636 646.435C729.229 645.611 729.633 644.679 729.823 643.698C729.974 642.683 729.437 641.687 728.482 641.211C726.966 640.647 725.164 642.13 723.67 641.504C723.164 641.235 722.74 640.846 722.439 640.375C720.675 637.945 719.662 635.093 719.516 632.143C719.602 630.571 719.455 628.995 719.077 627.463C718.633 625.886 717.049 624.849 715.341 625.018C713.935 625.331 713.144 626.689 712.265 627.776C711.386 628.863 709.628 630.158 708.485 631.516C706.534 634.307 705.418 637.55 705.255 640.898C704.64 645.077 704.244 649.861 707.321 652.87C709.694 655.189 716.923 657.927 720.242 656.694C723.911 655.315 726.79 649.444 728.636 646.435Z" fill="#F4AD7D"/>
<defs>
<linearGradient id="paint0_linear_160_4" x1="528.424" y1="560.166" x2="593.172" y2="431.592" gradientUnits="userSpaceOnUse">
<stop stop-color="#010101" stop-opacity="0.01"/>
<stop offset="0.95" stop-color="#010101"/>
</linearGradient>
<linearGradient id="paint1_linear_160_4" x1="583.593" y1="556.365" x2="676.439" y2="374.764" gradientUnits="userSpaceOnUse">
<stop stop-color="#010101" stop-opacity="0.01"/>
<stop offset="0.95" stop-color="#010101"/>
</linearGradient>
<linearGradient id="paint2_linear_160_4" x1="703.592" y1="565.092" x2="840.932" y2="254.933" gradientUnits="userSpaceOnUse">
<stop stop-color="#010101" stop-opacity="0.01"/>
<stop offset="0.95" stop-color="#010101"/>
</linearGradient>
<linearGradient id="paint3_linear_160_4" x1="831.445" y1="581.583" x2="1036.36" y2="134.156" gradientUnits="userSpaceOnUse">
<stop stop-color="#010101" stop-opacity="0.01"/>
<stop offset="0.36" stop-color="#010101" stop-opacity="0.36"/>
<stop offset="0.95" stop-color="#010101"/>
</linearGradient>
<linearGradient id="paint4_linear_160_4" x1="682.77" y1="476.564" x2="799.919" y2="234.955" gradientUnits="userSpaceOnUse">
<stop stop-color="white" stop-opacity="0.01"/>
<stop offset="0.07" stop-color="white" stop-opacity="0.22"/>
<stop offset="0.16" stop-color="white" stop-opacity="0.45"/>
<stop offset="0.25" stop-color="white" stop-opacity="0.65"/>
<stop offset="0.33" stop-color="white" stop-opacity="0.8"/>
<stop offset="0.4" stop-color="white" stop-opacity="0.91"/>
<stop offset="0.46" stop-color="white" stop-opacity="0.98"/>
<stop offset="0.51" stop-color="white"/>
</linearGradient>
<linearGradient id="paint5_linear_160_4" x1="604.683" y1="423.445" x2="668.873" y2="287.548" gradientUnits="userSpaceOnUse">
<stop stop-color="white" stop-opacity="0.01"/>
<stop offset="0.07" stop-color="white" stop-opacity="0.22"/>
<stop offset="0.16" stop-color="white" stop-opacity="0.45"/>
<stop offset="0.25" stop-color="white" stop-opacity="0.65"/>
<stop offset="0.33" stop-color="white" stop-opacity="0.8"/>
<stop offset="0.4" stop-color="white" stop-opacity="0.91"/>
<stop offset="0.46" stop-color="white" stop-opacity="0.98"/>
<stop offset="0.51" stop-color="white"/>
</linearGradient>
<linearGradient id="paint6_linear_160_4" x1="910.049" y1="886.322" x2="920.468" y2="759.584" gradientUnits="userSpaceOnUse">
<stop stop-color="#010101" stop-opacity="0.01"/>
<stop offset="0.95" stop-color="#010101"/>
</linearGradient>
<linearGradient id="paint7_linear_160_4" x1="508.278" y1="423.517" x2="505.563" y2="873.071" gradientUnits="userSpaceOnUse">
<stop stop-color="white" stop-opacity="0.01"/>
<stop offset="0.07" stop-color="white" stop-opacity="0.22"/>
<stop offset="0.16" stop-color="white" stop-opacity="0.45"/>
<stop offset="0.25" stop-color="white" stop-opacity="0.65"/>
<stop offset="0.33" stop-color="white" stop-opacity="0.8"/>
<stop offset="0.4" stop-color="white" stop-opacity="0.91"/>
<stop offset="0.46" stop-color="white" stop-opacity="0.98"/>
<stop offset="0.51" stop-color="white"/>
</linearGradient>
<linearGradient id="paint8_linear_160_4" x1="254.587" y1="861.073" x2="254.687" y2="1003.31" gradientUnits="userSpaceOnUse">
<stop stop-color="#010101" stop-opacity="0.01"/>
<stop offset="0.95" stop-color="#010101"/>
</linearGradient>
<linearGradient id="paint9_linear_160_4" x1="1407.17" y1="606.966" x2="1441.35" y2="199.854" gradientUnits="userSpaceOnUse">
<stop stop-color="white" stop-opacity="0.01"/>
<stop offset="0.07" stop-color="white" stop-opacity="0.22"/>
<stop offset="0.16" stop-color="white" stop-opacity="0.45"/>
<stop offset="0.25" stop-color="white" stop-opacity="0.65"/>
<stop offset="0.33" stop-color="white" stop-opacity="0.8"/>
<stop offset="0.4" stop-color="white" stop-opacity="0.91"/>
<stop offset="0.46" stop-color="white" stop-opacity="0.98"/>
<stop offset="0.51" stop-color="white"/>
</linearGradient>
<linearGradient id="paint10_linear_160_4" x1="580.167" y1="496.87" x2="718.159" y2="865.155" gradientUnits="userSpaceOnUse">
<stop stop-color="white" stop-opacity="0.01"/>
<stop offset="0.07" stop-color="white" stop-opacity="0.22"/>
<stop offset="0.16" stop-color="white" stop-opacity="0.45"/>
<stop offset="0.25" stop-color="white" stop-opacity="0.65"/>
<stop offset="0.33" stop-color="white" stop-opacity="0.8"/>
<stop offset="0.4" stop-color="white" stop-opacity="0.91"/>
<stop offset="0.46" stop-color="white" stop-opacity="0.98"/>
<stop offset="0.51" stop-color="white"/>
</linearGradient>
<linearGradient id="paint11_linear_160_4" x1="683.712" y1="519.99" x2="680.387" y2="802.698" gradientUnits="userSpaceOnUse">
<stop stop-color="white" stop-opacity="0.01"/>
<stop offset="0.07" stop-color="white" stop-opacity="0.22"/>
<stop offset="0.16" stop-color="white" stop-opacity="0.45"/>
<stop offset="0.25" stop-color="white" stop-opacity="0.65"/>
<stop offset="0.33" stop-color="white" stop-opacity="0.8"/>
<stop offset="0.4" stop-color="white" stop-opacity="0.91"/>
<stop offset="0.46" stop-color="white" stop-opacity="0.98"/>
<stop offset="0.51" stop-color="white"/>
</linearGradient>
<linearGradient id="paint12_linear_160_4" x1="999.592" y1="711.704" x2="1018.78" y2="133.785" gradientUnits="userSpaceOnUse">
<stop stop-color="#010101" stop-opacity="0.01"/>
<stop offset="0.95" stop-color="#010101"/>
</linearGradient>
<linearGradient id="paint13_linear_160_4" x1="998.74" y1="712.045" x2="1017.93" y2="134.125" gradientUnits="userSpaceOnUse">
<stop stop-color="#010101" stop-opacity="0.01"/>
<stop offset="0.95" stop-color="#010101"/>
</linearGradient>
<linearGradient id="paint14_linear_160_4" x1="904.547" y1="709.354" x2="923.761" y2="131.435" gradientUnits="userSpaceOnUse">
<stop stop-color="#010101" stop-opacity="0.01"/>
<stop offset="0.95" stop-color="#010101"/>
</linearGradient>
<linearGradient id="paint15_linear_160_4" x1="903.696" y1="709.694" x2="922.909" y2="131.775" gradientUnits="userSpaceOnUse">
<stop stop-color="#010101" stop-opacity="0.01"/>
<stop offset="0.95" stop-color="#010101"/>
</linearGradient>
<linearGradient id="paint16_linear_160_4" x1="997.802" y1="713.545" x2="1017.02" y2="135.627" gradientUnits="userSpaceOnUse">
<stop stop-color="#010101" stop-opacity="0.01"/>
<stop offset="0.95" stop-color="#010101"/>
</linearGradient>
<linearGradient id="paint17_linear_160_4" x1="903.758" y1="711.236" x2="922.943" y2="133.317" gradientUnits="userSpaceOnUse">
<stop stop-color="#010101" stop-opacity="0.01"/>
<stop offset="0.95" stop-color="#010101"/>
</linearGradient>
<linearGradient id="paint18_linear_160_4" x1="951.755" y1="712.396" x2="970.968" y2="134.499" gradientUnits="userSpaceOnUse">
<stop stop-color="#010101" stop-opacity="0.01"/>
<stop offset="0.95" stop-color="#010101"/>
</linearGradient>
<linearGradient id="paint19_linear_160_4" x1="953.571" y1="709.843" x2="972.784" y2="131.924" gradientUnits="userSpaceOnUse">
<stop stop-color="#010101" stop-opacity="0.01"/>
<stop offset="0.95" stop-color="#010101"/>
</linearGradient>
<linearGradient id="paint20_linear_160_4" x1="608.443" y1="724.399" x2="840.678" y2="941.127" gradientUnits="userSpaceOnUse">
<stop stop-color="white" stop-opacity="0.01"/>
<stop offset="0.07" stop-color="white" stop-opacity="0.22"/>
<stop offset="0.16" stop-color="white" stop-opacity="0.45"/>
<stop offset="0.25" stop-color="white" stop-opacity="0.65"/>
<stop offset="0.33" stop-color="white" stop-opacity="0.8"/>
<stop offset="0.4" stop-color="white" stop-opacity="0.91"/>
<stop offset="0.46" stop-color="white" stop-opacity="0.98"/>
<stop offset="0.51" stop-color="white"/>
</linearGradient>
<linearGradient id="paint21_linear_160_4" x1="957.361" y1="504.864" x2="955.576" y2="640.026" gradientUnits="userSpaceOnUse">
<stop stop-color="white" stop-opacity="0.01"/>
<stop offset="0.07" stop-color="white" stop-opacity="0.22"/>
<stop offset="0.16" stop-color="white" stop-opacity="0.45"/>
<stop offset="0.25" stop-color="white" stop-opacity="0.65"/>
<stop offset="0.33" stop-color="white" stop-opacity="0.8"/>
<stop offset="0.4" stop-color="white" stop-opacity="0.91"/>
<stop offset="0.46" stop-color="white" stop-opacity="0.98"/>
<stop offset="0.51" stop-color="white"/>
</linearGradient>
<linearGradient id="paint22_linear_160_4" x1="957.361" y1="614.864" x2="955.576" y2="750.026" gradientUnits="userSpaceOnUse">
<stop stop-color="white" stop-opacity="0.01"/>
<stop offset="0.07" stop-color="white" stop-opacity="0.22"/>
<stop offset="0.16" stop-color="white" stop-opacity="0.45"/>
<stop offset="0.25" stop-color="white" stop-opacity="0.65"/>
<stop offset="0.33" stop-color="white" stop-opacity="0.8"/>
<stop offset="0.4" stop-color="white" stop-opacity="0.91"/>
<stop offset="0.46" stop-color="white" stop-opacity="0.98"/>
<stop offset="0.51" stop-color="white"/>
</linearGradient>
<linearGradient id="paint23_linear_160_4" x1="593.468" y1="540.281" x2="593.45" y2="558.481" gradientUnits="userSpaceOnUse">
<stop stop-color="white" stop-opacity="0.01"/>
<stop offset="0.07" stop-color="white" stop-opacity="0.22"/>
<stop offset="0.16" stop-color="white" stop-opacity="0.45"/>
<stop offset="0.25" stop-color="white" stop-opacity="0.65"/>
<stop offset="0.33" stop-color="white" stop-opacity="0.8"/>
<stop offset="0.4" stop-color="white" stop-opacity="0.91"/>
<stop offset="0.46" stop-color="white" stop-opacity="0.98"/>
<stop offset="0.51" stop-color="white"/>
</linearGradient>
<linearGradient id="paint24_linear_160_4" x1="512.756" y1="593.051" x2="626.191" y2="503.619" gradientUnits="userSpaceOnUse">
<stop stop-color="#010101" stop-opacity="0.01"/>
<stop offset="0.95" stop-color="#010101"/>
</linearGradient>
<linearGradient id="paint25_linear_160_4" x1="562.602" y1="612.988" x2="723.884" y2="487.844" gradientUnits="userSpaceOnUse">
<stop stop-color="#010101" stop-opacity="0.01"/>
<stop offset="0.95" stop-color="#010101"/>
</linearGradient>
<linearGradient id="paint26_linear_160_4" x1="667.561" y1="671.751" x2="923.731" y2="448.991" gradientUnits="userSpaceOnUse">
<stop stop-color="#010101" stop-opacity="0.01"/>
<stop offset="0.95" stop-color="#010101"/>
</linearGradient>
<linearGradient id="paint27_linear_160_4" x1="776.336" y1="740.865" x2="1152.03" y2="422.397" gradientUnits="userSpaceOnUse">
<stop stop-color="#010101" stop-opacity="0.01"/>
<stop offset="0.36" stop-color="#010101" stop-opacity="0.36"/>
<stop offset="0.95" stop-color="#010101"/>
</linearGradient>
<linearGradient id="paint28_linear_160_4" x1="624.573" y1="503.751" x2="807.521" y2="372.297" gradientUnits="userSpaceOnUse">
<stop stop-color="white" stop-opacity="0.01"/>
<stop offset="0.07" stop-color="white" stop-opacity="0.22"/>
<stop offset="0.16" stop-color="white" stop-opacity="0.45"/>
<stop offset="0.25" stop-color="white" stop-opacity="0.65"/>
<stop offset="0.33" stop-color="white" stop-opacity="0.8"/>
<stop offset="0.4" stop-color="white" stop-opacity="0.91"/>
<stop offset="0.46" stop-color="white" stop-opacity="0.98"/>
<stop offset="0.51" stop-color="white"/>
</linearGradient>
<linearGradient id="paint29_linear_160_4" x1="638.189" y1="501.517" x2="754.05" y2="405.642" gradientUnits="userSpaceOnUse">
<stop stop-color="white" stop-opacity="0.01"/>
<stop offset="0.07" stop-color="white" stop-opacity="0.22"/>
<stop offset="0.16" stop-color="white" stop-opacity="0.45"/>
<stop offset="0.25" stop-color="white" stop-opacity="0.65"/>
<stop offset="0.33" stop-color="white" stop-opacity="0.8"/>
<stop offset="0.4" stop-color="white" stop-opacity="0.91"/>
<stop offset="0.46" stop-color="white" stop-opacity="0.98"/>
<stop offset="0.51" stop-color="white"/>
</linearGradient>
<linearGradient id="paint30_linear_160_4" x1="503.756" y1="667.745" x2="541.946" y2="667.767" gradientUnits="userSpaceOnUse">
<stop stop-color="white" stop-opacity="0.01"/>
<stop offset="0.07" stop-color="white" stop-opacity="0.22"/>
<stop offset="0.16" stop-color="white" stop-opacity="0.45"/>
<stop offset="0.25" stop-color="white" stop-opacity="0.65"/>
<stop offset="0.33" stop-color="white" stop-opacity="0.8"/>
<stop offset="0.4" stop-color="white" stop-opacity="0.91"/>
<stop offset="0.46" stop-color="white" stop-opacity="0.98"/>
<stop offset="0.51" stop-color="white"/>
</linearGradient>
<linearGradient id="paint31_linear_160_4" x1="430.453" y1="570.2" x2="442.103" y2="608.933" gradientUnits="userSpaceOnUse">
<stop stop-color="#010101" stop-opacity="0.01"/>
<stop offset="0.95" stop-color="#010101"/>
</linearGradient>
<linearGradient id="paint32_linear_160_4" x1="455.255" y1="718.933" x2="556.172" y2="720.976" gradientUnits="userSpaceOnUse">
<stop stop-color="#010101" stop-opacity="0.01"/>
<stop offset="0.95" stop-color="#010101"/>
</linearGradient>
<linearGradient id="paint33_linear_160_4" x1="858.084" y1="876.512" x2="761.998" y2="711.72" gradientUnits="userSpaceOnUse">
<stop stop-color="#010101" stop-opacity="0.01"/>
<stop offset="0.95" stop-color="#010101"/>
</linearGradient>
<linearGradient id="paint34_linear_160_4" x1="859.107" y1="414.892" x2="686.196" y2="419.763" gradientUnits="userSpaceOnUse">
<stop stop-color="#010101" stop-opacity="0.01"/>
<stop offset="0.95" stop-color="#010101"/>
</linearGradient>
</defs>
</svg>
