<svg width="480" height="317" viewBox="0 0 480 317" fill="none" xmlns="http://www.w3.org/2000/svg">
<path d="M99.0802 137.89C74.7797 138.002 55 138.358 55 138.358C55 138.358 78.5112 107.437 98.992 118.893C119.473 130.349 143 137.955 143 137.955C143 137.955 123.381 137.779 99.0802 137.89Z" fill="#F2F2F2"/>
<path d="M371 147.362C373.761 147.362 376 145.123 376 142.36C376 139.597 373.761 137.357 371 137.357C368.239 137.357 366 139.597 366 142.36C366 145.123 368.239 147.362 371 147.362Z" fill="#FF6584"/>
<path d="M333.99 221.712L371.977 178.07L373.149 179.092L335.162 222.734L333.99 221.712Z" fill="#3F3D56"/>
<path d="M373 186.381C377.418 186.381 381 182.798 381 178.377C381 173.957 377.418 170.373 373 170.373C368.582 170.373 365 173.957 365 178.377C365 182.798 368.582 186.381 373 186.381Z" fill="#3F3D56"/>
<path d="M349.286 205.39C349.286 205.39 364.646 185.808 345 172.374L349.286 205.39Z" fill="#3F3D56"/>
<path d="M94.578 239.811C122.726 292.027 182.467 314.442 182.467 314.442C182.467 314.442 196.57 252.199 168.422 199.983C140.274 147.767 80.5332 125.352 80.5332 125.352C80.5332 125.352 66.4298 187.595 94.578 239.811Z" fill="#3F3D56"/>
<path d="M113.621 222.858C164.431 253.529 184 314.451 184 314.451C184 314.451 121.189 325.644 70.3788 294.973C19.5686 264.302 0 203.381 0 203.381C0 203.381 62.811 192.187 113.621 222.858Z" fill="#111B47"/>
<path d="M315.194 223.129C264.108 253.381 244 314.192 244 314.192C244 314.192 306.719 325.955 357.806 295.703C408.892 265.452 429 204.64 429 204.64C429 204.64 366.281 192.877 315.194 223.129Z" fill="#3F3D56"/>
<path d="M333.739 241.628C305.134 293.568 245.207 315.443 245.207 315.443C245.207 315.443 231.657 253.107 260.261 201.167C288.866 149.228 348.793 127.353 348.793 127.353C348.793 127.353 362.343 189.688 333.739 241.628Z" fill="#111B47"/>
<path d="M229.881 99.3792C223.866 93.9339 223.024 84.783 227.944 78.3291C227.63 78.6239 227.323 78.9299 227.029 79.2553C221.25 85.6519 221.747 95.526 228.138 101.31C234.528 107.093 244.393 106.596 250.171 100.2C250.465 99.8742 250.739 99.5377 251 99.1954C245.079 104.743 235.898 104.823 229.881 99.3792Z" fill="#2F2E41"/>
<path d="M215.5 110.344C233.449 110.344 248 95.7867 248 77.8288C248 59.871 233.449 45.3132 215.5 45.3132C197.551 45.3132 183 59.871 183 77.8288C183 95.7867 197.551 110.344 215.5 110.344Z" fill="#2F2E41"/>
<path d="M206.238 119.38L207.212 116.873L189.476 131.72L168.038 143.675C168.038 143.675 157.123 102.026 156.344 101.255C155.564 100.484 141.532 71.1754 135.295 85.0583C129.058 98.9411 147.378 107.039 147.378 107.039C147.378 107.039 147.963 157.75 166.673 157.365C185.384 156.979 208.576 140.204 208.966 138.662C209.356 137.119 206.238 119.38 206.238 119.38Z" fill="#FFB8B8"/>
<path d="M211.5 111.345C222.27 111.345 231 102.61 231 91.8355C231 81.0608 222.27 72.3262 211.5 72.3262C200.73 72.3262 192 81.0608 192 91.8355C192 102.61 200.73 111.345 211.5 111.345Z" fill="#FFB8B8"/>
<path d="M214.879 106.093C214.879 106.093 219.943 112.664 218.385 113.437C216.827 114.21 207.868 114.597 202.414 121.168C196.961 127.739 209.036 144.361 209.036 144.361L255 113.824L236.303 107.639C236.303 107.639 223.449 100.681 223.838 93.3364L214.879 106.093Z" fill="#FFB8B8"/>
<path d="M277 316.443H225.37C222.445 295.096 221.093 275.532 221.093 275.532C221.093 275.532 220.339 295.211 218.331 316.443H152C161.403 253.572 205.978 185.396 205.978 185.396C205.978 185.396 206.366 176.109 207.529 174.56C208.693 173.017 200.941 172.629 197.451 161.024C195.323 153.94 197.236 149.304 199.055 146.772C199.679 145.859 200.447 145.053 201.329 144.386C201.329 144.386 202.105 136.265 201.329 135.104C201.23 134.952 201.995 134.418 203.41 133.607C204.589 132.927 206.219 132.053 208.169 131.049C219.338 125.267 240.957 115.038 248.363 111.553C249.987 110.784 250.931 110.344 250.931 110.344L264.107 114.986C274.568 118.465 274.568 140.519 274.568 140.519L273.976 141.419L258.164 165.33L248.992 179.206C251.319 180.75 246.67 190.424 246.67 190.424C246.67 190.424 253.295 199.926 258.682 214.43C261.729 222.502 263.807 230.906 264.872 239.466C265.551 245.014 265.685 250.615 265.27 256.189C263.834 274.826 270.218 297.476 277 316.443Z" fill="#2F2E41"/>
<path d="M263.951 116.782C263.091 116.293 262.063 116.212 261.139 116.562C260.216 116.911 259.492 117.655 259.161 118.595C258.007 121.805 256.838 128.496 257.255 142.408C258.021 167.993 258.404 185.437 258.404 185.437V224.202C258.404 224.202 241.551 261.417 250.744 261.417C259.936 261.417 266.447 231.955 266.447 231.955C266.447 231.955 274.874 187.375 272.192 179.622C272.192 179.622 279.752 126.062 263.951 116.782Z" fill="#FFB8B8"/>
<path d="M209.5 86.3331C218.613 86.3331 226 81.1819 226 74.8275C226 68.4732 218.613 63.322 209.5 63.322C200.387 63.322 193 68.4732 193 74.8275C193 81.1819 200.387 86.3331 209.5 86.3331Z" fill="#2F2E41"/>
<path d="M236 65.323C244.837 65.323 252 58.1561 252 49.3153C252 40.4745 244.837 33.3076 236 33.3076C227.163 33.3076 220 40.4745 220 49.3153C220 58.1561 227.163 65.323 236 65.323Z" fill="#2F2E41"/>
<path d="M247 60.7052C238.682 60.7041 231.752 54.4478 231.06 46.3137C231.023 46.7455 231 47.181 231 47.622C231 56.2928 238.163 63.3219 247 63.3219C255.837 63.3219 263 56.2928 263 47.622C263 47.181 262.977 46.7455 262.94 46.3137C262.248 54.4478 255.318 60.7041 247 60.7052Z" fill="#2F2E41"/>
<path d="M230.389 88.3522C231.118 88.1781 231.386 86.6864 230.988 85.0204C230.591 83.3544 229.678 82.145 228.949 82.3191C228.22 82.4931 227.952 83.9848 228.35 85.6508C228.748 87.3168 229.661 88.5263 230.389 88.3522Z" fill="#FFB8B8"/>
<path d="M230 88.333C230.552 88.333 231 87.8853 231 87.333C231 86.7807 230.552 86.333 230 86.333C229.448 86.333 229 86.7807 229 87.333C229 87.8853 229.448 88.333 230 88.333Z" fill="#F2F2F2"/>
<path fill-rule="evenodd" clip-rule="evenodd" d="M40 147.862C40 151.454 42.9101 154.366 46.5 154.366C50.0882 154.362 52.996 151.452 53 147.862C53 144.271 50.0899 141.359 46.5 141.359C42.9101 141.359 40 144.271 40 147.862ZM41.0833 147.862C41.0833 144.869 43.5085 142.443 46.5 142.443C49.4901 142.446 51.9132 144.87 51.9167 147.862C51.9167 150.855 49.4915 153.281 46.5 153.281C43.5085 153.281 41.0833 150.855 41.0833 147.862Z" fill="#3F3D56"/>
<path fill-rule="evenodd" clip-rule="evenodd" d="M304 108.343H318V94.3367H304V108.343ZM316.923 107.265H305.077V95.4136H316.923V107.265Z" fill="#3F3D56"/>
<path d="M436.08 180.911C411.78 181.022 392 181.378 392 181.378C392 181.378 415.511 150.458 435.992 161.914C456.473 173.37 480 180.976 480 180.976C480 180.976 460.381 180.8 436.08 180.911Z" fill="#F2F2F2"/>
<path d="M361.08 75.8605C336.78 75.9717 317 76.3282 317 76.3282C317 76.3282 340.511 45.4075 360.992 56.8634C381.473 68.3193 405 75.9255 405 75.9255C405 75.9255 385.381 75.7493 361.08 75.8605Z" fill="#F2F2F2"/>
<path d="M131.358 89.4673L75.2363 60.4815C71.4039 58.5022 69.8946 53.7771 71.8653 49.9277L85.0868 24.1021C85.4748 23.3442 86.1559 22.7798 86.9705 22.5412L131.205 9.58645C134.877 8.51089 138.746 10.5089 140.011 14.1349L154.545 55.7757C155.279 57.8779 155.12 60.1907 154.106 62.1718L141.865 86.0814C140.919 87.9299 139.28 89.3251 137.31 89.9601C135.339 90.5951 133.198 90.4178 131.358 89.4673Z" fill="#F2F2F2"/>
<path opacity="0.1" d="M133.347 79.9059L76.8055 55.6532C74.9836 54.712 76.6919 56.1587 77.6287 54.3283L84.7363 25.3037L154 61.0883L136.489 82.8421C135.553 84.6726 135.169 80.8471 133.347 79.9059Z" fill="black"/>
<path d="M86.1559 62.9619C82.1357 60.8937 80.5521 55.9574 82.6187 51.9364L101.661 14.8862C103.728 10.8653 108.662 9.28224 112.682 11.3505L149.711 30.4C153.731 32.4682 155.315 37.4045 153.248 41.4255L134.205 78.4757C132.139 82.4966 127.204 84.0797 123.184 82.0114L86.1559 62.9619Z" fill="#111B47"/>
<path opacity="0.1" d="M145 56.9045L130.458 85.3326L79 58.7337L93.542 30.3062L112.877 56.1062L145 56.9045Z" fill="black"/>
<path d="M112.252 57.9761L87.2877 24.9057C86.9738 24.4899 86.4677 24.2644 85.948 24.3087C85.4282 24.3531 84.9678 24.6611 84.7293 25.1241L70.5238 52.6929C69.9499 53.8068 69.8428 55.1026 70.2262 56.2953C70.6096 57.4879 71.4521 58.4797 72.5683 59.0525L134.46 90.8126C135.577 91.3854 136.875 91.4922 138.07 91.1096C139.265 90.727 140.259 89.8862 140.833 88.7723L154.795 61.6758C155.086 61.1109 155.066 60.4362 154.741 59.8899C154.416 59.3436 153.833 59.0024 153.196 58.9867L112.252 57.9761Z" fill="#F2F2F2"/>
<path d="M107.412 14.6306L121.839 22.0526L120.79 24.0937L106.363 16.6717L107.412 14.6306Z" fill="#F2F2F2"/>
<path d="M102.425 21.4663L145.268 43.5074L144.669 44.6737L101.826 22.6327L102.425 21.4663Z" fill="#F2F2F2"/>
<path d="M100.402 25.4028L143.245 47.4439L142.646 48.6102L99.8024 26.5692L100.402 25.4028Z" fill="#F2F2F2"/>
<path d="M98.3787 29.3394L141.222 51.3804L140.622 52.5468L97.7792 30.5057L98.3787 29.3394Z" fill="#F2F2F2"/>
<path d="M113.073 12.5794C114.773 9.27211 113.476 5.21481 110.176 3.51723C106.877 1.81964 102.824 3.1246 101.124 6.43194C99.4239 9.73928 100.721 13.7966 104.021 15.4942C107.32 17.1917 111.373 15.8868 113.073 12.5794Z" fill="white"/>
<path fill-rule="evenodd" clip-rule="evenodd" d="M99.8874 5.63623C101.908 1.70593 106.733 0.158146 110.664 2.17915C114.583 4.20919 116.128 9.02351 114.121 12.955C112.1 16.8852 107.275 18.433 103.345 16.412C99.4142 14.391 97.8664 9.56653 99.8874 5.63623ZM101.82 6.81642L103.592 12.339L113.541 9.15305L113.044 7.60403L104.646 10.2982L103.369 6.31947L101.82 6.81642Z" fill="#57B894"/>
</svg>
